<?xml version="1.0" encoding="UTF-8"?>
<svg version="1.1" xmlns="http://www.w3.org/2000/svg" width="1024" height="1024">
<path d="M0 0 C1.58460386 -0.00302844 3.16920625 -0.00692135 4.75380611 -0.01159257 C9.06514335 -0.02179272 13.3763967 -0.01971131 17.68774056 -0.01541197 C22.35463604 -0.01293001 27.02151207 -0.02197721 31.68840027 -0.02944946 C40.81612937 -0.04215926 49.94382899 -0.04399469 59.07156545 -0.0416492 C66.4985498 -0.03986119 73.92552526 -0.04162601 81.35250854 -0.04587364 C82.9422702 -0.04676643 82.9422702 -0.04676643 84.56414825 -0.04767724 C86.71775842 -0.04888909 88.87136859 -0.05010323 91.02497876 -0.05131962 C111.19593682 -0.06218149 131.36687815 -0.06003948 151.53783715 -0.05393478 C169.94773382 -0.04877059 188.35757749 -0.06001032 206.76746368 -0.07903299 C225.71271252 -0.09845728 244.65793634 -0.10665913 263.60319519 -0.10290974 C274.2225214 -0.10100417 284.84180257 -0.10342186 295.46112061 -0.11762428 C304.50490401 -0.12959795 313.54861466 -0.13087664 322.59239918 -0.11883412 C327.19680592 -0.11298625 331.80107999 -0.11173085 336.40547752 -0.12383652 C386.88661679 -0.24726877 435.75338523 8.58236854 474.73486328 43.26069641 C475.57017578 43.98772766 476.40548828 44.71475891 477.26611328 45.46382141 C479.79173317 47.69322662 482.26989434 49.96450719 484.73486328 52.26069641 C485.52376953 52.98386047 486.31267578 53.70702454 487.12548828 54.45210266 C517.08962713 83.01469308 536.25621217 127.46508523 537.83204532 168.81047738 C537.87397324 171.50732562 537.8873325 174.20269825 537.88876343 176.89987183 C537.89314568 177.92391568 537.89752794 178.94795953 537.90204298 180.00303501 C537.91532067 183.40996907 537.92158492 186.81687735 537.92773438 190.22383118 C537.93564431 192.67732354 537.9439138 195.13081477 537.95251465 197.58430481 C537.97638411 204.92922482 537.99164962 212.27414052 538.00457472 219.61908594 C538.0082958 221.6993171 538.01226826 223.77954763 538.01632738 225.85977817 C538.04157651 238.82251774 538.0635944 251.78525861 538.07605553 264.74801731 C538.07898444 267.7436988 538.08194621 270.73938025 538.08496094 273.73506165 C538.08570699 274.47947441 538.08645304 275.22388717 538.0872217 275.99085789 C538.09984272 288.01731131 538.13302887 300.04361581 538.17476277 312.06999982 C538.21741142 324.46328401 538.24077689 336.85649245 538.24597609 349.24984974 C538.24936472 356.18951141 538.26081393 363.12894051 538.29407883 370.06852913 C538.32539283 376.61121871 538.33036929 383.15361661 538.31869507 389.69637299 C538.31847671 392.07731828 538.32658075 394.45828382 538.34434891 396.83916283 C538.60528422 433.86615223 528.40421139 473.34975099 505.73486328 503.26069641 C504.63658203 504.7785675 504.63658203 504.7785675 503.51611328 506.32710266 C494.10987647 519.14055219 483.3267855 530.5612525 470.73486328 540.26069641 C469.98591797 540.89878235 469.23697266 541.53686829 468.46533203 542.19429016 C448.61018876 559.00520363 423.80289051 570.06593221 398.79736328 576.51069641 C397.85763672 576.75706848 396.91791016 577.00344055 395.94970703 577.25727844 C380.11853552 581.15845439 364.32534626 581.55448981 348.12304688 581.53193665 C346.00697125 581.53633464 343.89089735 581.54164066 341.77482605 581.54777527 C337.25267864 581.55919025 332.73057755 581.56472835 328.20841599 581.56565666 C321.04503961 581.56761337 313.88175787 581.58575191 306.71841431 581.60641479 C288.93459682 581.65537739 271.15075399 581.68647413 253.36688232 581.7077179 C239.52285781 581.72427561 225.67891569 581.7471654 211.83494627 581.79073864 C204.72642791 581.81240814 197.61806652 581.82058303 190.50951743 581.8183459 C186.0761671 581.82002186 181.64291798 581.83412572 177.20960426 581.85155869 C175.16795023 581.85711977 173.12627487 581.85767925 171.08461952 581.85262108 C147.74376923 581.80089271 127.89826192 585.7943708 109.29736328 600.69819641 C107.71674848 601.94573716 106.13601595 603.19312876 104.55517578 604.44038391 C103.35683105 605.39122864 103.35683105 605.39122864 102.13427734 606.36128235 C98.33152654 609.37159993 94.50219078 612.34745508 90.67236328 615.32319641 C89.93091064 615.90037415 89.18945801 616.47755188 88.42553711 617.07221985 C82.59252564 621.6085124 76.72424409 626.09741517 70.84790039 630.5773468 C66.44828164 633.9363387 62.0791026 637.33044315 57.73486328 640.76069641 C51.98222089 645.30303832 46.17047032 649.76365565 40.34130859 654.20722961 C35.03262989 658.25805503 29.75248754 662.34415511 24.48486328 666.44819641 C22.97444984 667.62398181 21.46403325 668.79976315 19.95361328 669.97554016 C17.93740152 671.54526618 15.92135777 673.11519684 13.90673828 674.68696594 C7.73493535 679.49807035 1.50449337 684.22490308 -4.82763672 688.82319641 C-5.4119043 689.25342102 -5.99617187 689.68364563 -6.59814453 690.12690735 C-11.90880249 693.94151789 -15.73432072 694.80493108 -22.26513672 694.26069641 C-28.02517812 692.54144451 -31.22207237 689.69371028 -34.24448204 684.58605957 C-36.05680865 680.45702591 -35.96605769 676.439363 -35.92456055 671.98921204 C-35.93504425 670.99317963 -35.94552795 669.99714722 -35.95632935 668.97093201 C-35.98496289 665.70261536 -35.97880127 662.43536543 -35.97216797 659.16694641 C-35.98529002 656.89150167 -36.00059579 654.61606856 -36.01799011 652.34065247 C-36.05779311 646.3697239 -36.06802761 640.39910039 -36.07202148 634.42805481 C-36.08136166 628.32790399 -36.11878086 622.22793175 -36.15380859 616.12788391 C-36.21833683 604.17216305 -36.25161608 592.21657618 -36.26513672 580.26069641 C-37.53808594 579.93166321 -38.81103516 579.60263 -40.12255859 579.2636261 C-41.82636875 578.82007222 -43.53014287 578.37637992 -45.23388672 577.93257141 C-46.06887695 577.71713684 -46.90386719 577.50170227 -47.76416016 577.27973938 C-84.19595207 567.76502868 -119.60004791 547.03290491 -143.26513672 517.26069641 C-144.03083984 516.30936829 -144.79654297 515.35804016 -145.58544922 514.37788391 C-170.52539584 482.9543236 -186.44390029 443.27121449 -186.40557861 402.86035156 C-186.40854974 401.86207032 -186.41152086 400.86378907 -186.41458201 399.83525687 C-186.42320031 396.51571696 -186.42477142 393.19621339 -186.42626953 389.87666321 C-186.43090269 387.4856458 -186.43592802 385.09462912 -186.4413147 382.70361328 C-186.45439549 376.22366453 -186.46091333 369.74372269 -186.46532536 363.26376319 C-186.46809936 359.20679391 -186.47233884 355.14982696 -186.47682953 351.09285927 C-186.48901567 339.82996998 -186.49931517 328.56708255 -186.50270462 317.30418682 C-186.50303397 316.22508929 -186.50303397 316.22508929 -186.50336997 315.12419181 C-186.50358825 314.40320025 -186.50380653 313.68220869 -186.50403142 312.9393689 C-186.50447486 311.47868836 -186.50492143 310.01800781 -186.50537109 308.55732727 C-186.50559252 307.83279957 -186.50581395 307.10827187 -186.50604209 306.36178879 C-186.50998229 294.64630355 -186.52741541 282.93088081 -186.55073062 271.21541967 C-186.57455035 259.1475968 -186.58691133 247.07980514 -186.58807254 235.01195842 C-186.58898354 228.2524616 -186.59458889 221.49304616 -186.61289215 214.73357201 C-186.62950009 208.36492794 -186.6314672 201.99643716 -186.62275314 195.62777901 C-186.62198944 193.30644187 -186.62623593 190.98509604 -186.6362114 188.66378021 C-186.71142112 170.05195161 -185.44076448 151.8429848 -180.20263672 133.88569641 C-179.90518555 132.85243225 -179.60773438 131.81916809 -179.30126953 130.7545929 C-170.99872005 103.0590579 -156.59523231 78.57996711 -136.64599609 57.7089386 C-135.32487815 56.32335309 -134.021119 54.92127857 -132.71826172 53.51850891 C-98.78831206 18.04628882 -48.47107801 -0.13333014 0 0 Z " fill="#000001" transform="translate(336.26513671875,164.7393035888672)"/>
<path d="M0 0 C1.44878805 1.17370171 2.88628159 2.36147397 4.3125 3.5625 C5.07433594 4.201875 5.83617187 4.84125 6.62109375 5.5 C20.77667281 17.72201767 31.13937455 33.40926607 40.3125 49.5625 C40.6537793 50.1493457 40.99505859 50.73619141 41.34667969 51.34082031 C59.07693778 81.93187805 68.09129569 118.55361378 58.95410156 153.32128906 C54.70796225 168.1536935 47.19864192 181.76062244 37.3125 193.5625 C36.85617187 194.17480469 36.39984375 194.78710938 35.9296875 195.41796875 C31.6900385 200.90528588 26.30201554 204.18732705 20.3125 207.5625 C19.50296875 208.02785156 18.6934375 208.49320313 17.859375 208.97265625 C-14.26215186 225.48796959 -57.63477584 215.67189497 -91.50708008 209.76635742 C-103.94393565 207.60901481 -116.38126404 206.03707643 -128.94970703 204.82861328 C-130.73299407 204.65527791 -132.51533905 204.47186069 -134.29638672 204.27685547 C-148.50171324 202.73585459 -164.13187025 201.52407704 -177.125 208.375 C-184.79960504 214.92649211 -186.90501994 221.23076907 -187.97265625 231.234375 C-188.18921827 237.75006721 -187.28488132 244.13054211 -186.390625 250.56640625 C-186.25830475 251.52723618 -186.1259845 252.4880661 -185.98965454 253.47801208 C-184.37788515 265.01223312 -182.4873751 276.50156776 -180.58886719 287.99145508 C-174.92508212 322.35820061 -171.32999099 360.57282891 -192.6875 390.5625 C-197.38147604 396.36187137 -202.46655602 402.40212106 -208.6875 406.5625 C-211.5 406.8125 -211.5 406.8125 -213.6875 406.5625 C-213.88666016 405.53189453 -213.88666016 405.53189453 -214.08984375 404.48046875 C-214.26644531 403.57941406 -214.44304687 402.67835938 -214.625 401.75 C-214.88603516 400.41001953 -214.88603516 400.41001953 -215.15234375 399.04296875 C-215.66491153 396.44852829 -215.66491153 396.44852829 -216.6875 393.5625 C-216.91297649 392.20125572 -217.10657225 390.83457591 -217.27880859 389.46557617 C-217.38697906 388.63093338 -217.49514954 387.79629059 -217.6065979 386.93635559 C-217.781996 385.5660041 -217.781996 385.5660041 -217.9609375 384.16796875 C-219.62438631 371.5934113 -221.64135576 359.08347305 -223.70410156 346.5690918 C-224.32249614 342.81430516 -224.93494448 339.05857935 -225.546875 335.30273438 C-225.93975781 332.90619319 -226.33297397 330.50970663 -226.7265625 328.11328125 C-226.90885406 326.99472244 -227.09114563 325.87616364 -227.27896118 324.72370911 C-227.53460342 323.17885078 -227.53460342 323.17885078 -227.79541016 321.6027832 C-227.94402496 320.69873245 -228.09263977 319.7946817 -228.24575806 318.86323547 C-228.66340365 316.4153304 -228.66340365 316.4153304 -229.6875 313.5625 C-229.87344544 312.06030188 -230.02384267 310.55352954 -230.15039062 309.04516602 C-230.65688591 303.60618678 -231.43773326 298.23550592 -232.28125 292.83984375 C-232.43283569 291.85432022 -232.58442139 290.86879669 -232.74060059 289.85340881 C-233.22042441 286.73521778 -233.70363552 283.61756638 -234.1875 280.5 C-234.67109985 277.37882433 -235.15388594 274.25753191 -235.63439941 271.13587952 C-235.93193806 269.20333122 -236.23122422 267.27105083 -236.53259277 265.33909607 C-241.88713939 230.5922735 -234.25631505 198.30136334 -213.6875 169.5625 C-210.82683351 165.76114217 -207.82827913 162.13458331 -204.6875 158.5625 C-203.9346875 157.68851563 -203.181875 156.81453125 -202.40625 155.9140625 C-194.58756398 146.99754728 -185.61141573 139.80107123 -176.37109375 132.4296875 C-175.83025146 131.99769043 -175.28940918 131.56569336 -174.73217773 131.12060547 C-172.6875 129.5625 -172.6875 129.5625 -171.02351379 128.57736206 C-165.63427452 125.22179714 -164.01463331 121.7821113 -162.14453125 115.8359375 C-161.85407928 114.98356003 -161.56362732 114.13118256 -161.26437378 113.25297546 C-160.64489874 111.43094697 -160.03533098 109.60552478 -159.43490601 107.77713013 C-157.85719278 102.98507404 -156.196829 98.22186956 -154.5390625 93.45703125 C-154.21211899 92.51313034 -153.88517548 91.56922943 -153.54832458 90.59672546 C-149.34821209 78.57113125 -144.24421728 67.0241099 -138.6875 55.5625 C-138.27226074 54.6977002 -137.85702148 53.83290039 -137.42919922 52.94189453 C-128.66697179 34.89952756 -117.92067629 17.77286672 -103.6875 3.5625 C-102.6975 2.46615234 -102.6975 2.46615234 -101.6875 1.34765625 C-74.65664333 -27.9920861 -29.23000379 -22.239119 0 0 Z " fill="#FDFEFE" transform="translate(603.6875,296.4375)"/>
<path d="M0 0 C4.55560991 3.0551324 8.79153139 6.48529801 13 10 C13.52343994 10.42627686 14.04687988 10.85255371 14.58618164 11.29174805 C18.93853137 14.85276146 22.43532854 18.67341402 26 23 C26.41443359 23.50208984 26.82886719 24.00417969 27.25585938 24.52148438 C35.25357182 34.27338483 42.79669546 44.43352117 48 56 C47.6875 58.875 47.6875 58.875 47 61 C41.19204755 62.65817723 36.01288381 63.30658789 29.98828125 63.30078125 C29.14630188 63.30642593 28.30432251 63.31207062 27.43682861 63.31788635 C24.72852784 63.32984088 22.02079902 63.32368971 19.3125 63.3125 C18.38694305 63.31034485 17.46138611 63.3081897 16.50778198 63.30596924 C3.10656562 63.25569524 -9.86178951 62.84411965 -23 60 C-23.9885498 59.79600586 -24.97709961 59.59201172 -25.99560547 59.38183594 C-77.54035539 48.63976307 -77.54035539 48.63976307 -95 37 C-93.02983542 24.31333416 -73.76741611 6.37426003 -64 -1 C-42.38554497 -15.3804336 -21.51928451 -12.90097007 0 0 Z " fill="#000000" transform="translate(571,369)"/>
</svg>
